<?xml version="1.0" encoding="UTF-8"?>
<svg xmlns="http://www.w3.org/2000/svg" xmlns:xlink="http://www.w3.org/1999/xlink" width="21px" height="21px" viewBox="0 0 21 21" version="1.1">
<symbol fill="none" id="floppy">
<path style=" stroke:none;fill-rule:nonzero;fill:rgb(0%,0%,0%);fill-opacity:1;" d="M 0 0 L 1.617188 0 L 1.617188 1.617188 L 0 1.617188 Z M 0 0 "/>
<path style=" stroke:none;fill-rule:nonzero;fill:rgb(0%,0%,0%);fill-opacity:1;" d="M 0 1.613281 L 1.617188 1.613281 L 1.617188 3.230469 L 0 3.230469 Z M 0 1.613281 "/>
<path style=" stroke:none;fill-rule:nonzero;fill:rgb(0%,0%,0%);fill-opacity:1;" d="M 0 3.230469 L 1.617188 3.230469 L 1.617188 4.847656 L 0 4.847656 Z M 0 3.230469 "/>
<path style=" stroke:none;fill-rule:nonzero;fill:rgb(0%,0%,0%);fill-opacity:1;" d="M 0 4.847656 L 1.617188 4.847656 L 1.617188 6.460938 L 0 6.460938 Z M 0 4.847656 "/>
<path style=" stroke:none;fill-rule:nonzero;fill:rgb(0%,0%,0%);fill-opacity:1;" d="M 0 6.460938 L 1.617188 6.460938 L 1.617188 8.078125 L 0 8.078125 Z M 0 6.460938 "/>
<path style=" stroke:none;fill-rule:nonzero;fill:rgb(0%,0%,0%);fill-opacity:1;" d="M 0 8.078125 L 1.617188 8.078125 L 1.617188 9.691406 L 0 9.691406 Z M 0 8.078125 "/>
<path style=" stroke:none;fill-rule:nonzero;fill:rgb(0%,0%,0%);fill-opacity:1;" d="M 0 9.691406 L 1.617188 9.691406 L 1.617188 11.308594 L 0 11.308594 Z M 0 9.691406 "/>
<path style=" stroke:none;fill-rule:nonzero;fill:rgb(0%,0%,0%);fill-opacity:1;" d="M 0 11.308594 L 1.617188 11.308594 L 1.617188 12.921875 L 0 12.921875 Z M 0 11.308594 "/>
<path style=" stroke:none;fill-rule:nonzero;fill:rgb(0%,0%,0%);fill-opacity:1;" d="M 0 12.921875 L 1.617188 12.921875 L 1.617188 14.539062 L 0 14.539062 Z M 0 12.921875 "/>
<path style=" stroke:none;fill-rule:nonzero;fill:rgb(0%,0%,0%);fill-opacity:1;" d="M 0 14.539062 L 1.617188 14.539062 L 1.617188 16.152344 L 0 16.152344 Z M 0 14.539062 "/>
<path style=" stroke:none;fill-rule:nonzero;fill:rgb(0%,0%,0%);fill-opacity:1;" d="M 0 16.152344 L 1.617188 16.152344 L 1.617188 17.769531 L 0 17.769531 Z M 0 16.152344 "/>
<path style=" stroke:none;fill-rule:nonzero;fill:rgb(0%,0%,0%);fill-opacity:1;" d="M 0 17.769531 L 1.617188 17.769531 L 1.617188 19.382812 L 0 19.382812 Z M 0 17.769531 "/>
<path style=" stroke:none;fill-rule:nonzero;fill:rgb(0%,0%,0%);fill-opacity:1;" d="M 0 19.386719 L 1.617188 19.386719 L 1.617188 21 L 0 21 Z M 0 19.386719 "/>
<path style=" stroke:none;fill-rule:nonzero;fill:rgb(0%,0%,0%);fill-opacity:1;" d="M 17.769531 0 L 17.769531 1.617188 L 16.152344 1.617188 L 16.152344 0 Z M 17.769531 0 "/>
<path style=" stroke:none;fill-rule:nonzero;fill:rgb(0%,0%,0%);fill-opacity:1;" d="M 16.152344 0 L 16.152344 1.617188 L 14.539062 1.617188 L 14.539062 0 Z M 16.152344 0 "/>
<path style=" stroke:none;fill-rule:nonzero;fill:rgb(0%,0%,0%);fill-opacity:1;" d="M 14.539062 0 L 14.539062 1.617188 L 12.921875 1.617188 L 12.921875 0 Z M 14.539062 0 "/>
<path style=" stroke:none;fill-rule:nonzero;fill:rgb(0%,0%,0%);fill-opacity:1;" d="M 12.921875 0 L 12.921875 1.617188 L 11.308594 1.617188 L 11.308594 0 Z M 12.921875 0 "/>
<path style=" stroke:none;fill-rule:nonzero;fill:rgb(0%,0%,0%);fill-opacity:1;" d="M 11.308594 0 L 11.308594 1.617188 L 9.691406 1.617188 L 9.691406 0 Z M 11.308594 0 "/>
<path style=" stroke:none;fill-rule:nonzero;fill:rgb(0%,0%,0%);fill-opacity:1;" d="M 9.691406 0 L 9.691406 1.617188 L 8.078125 1.617188 L 8.078125 0 Z M 9.691406 0 "/>
<path style=" stroke:none;fill-rule:nonzero;fill:rgb(0%,0%,0%);fill-opacity:1;" d="M 8.078125 0 L 8.078125 1.617188 L 6.460938 1.617188 L 6.460938 0 Z M 8.078125 0 "/>
<path style=" stroke:none;fill-rule:nonzero;fill:rgb(0%,0%,0%);fill-opacity:1;" d="M 6.460938 0 L 6.460938 1.617188 L 4.847656 1.617188 L 4.847656 0 Z M 6.460938 0 "/>
<path style=" stroke:none;fill-rule:nonzero;fill:rgb(0%,0%,0%);fill-opacity:1;" d="M 4.847656 0 L 4.847656 1.617188 L 3.230469 1.617188 L 3.230469 0 Z M 4.847656 0 "/>
<path style=" stroke:none;fill-rule:nonzero;fill:rgb(0%,0%,0%);fill-opacity:1;" d="M 3.230469 0 L 3.230469 1.617188 L 1.617188 1.617188 L 1.617188 0 Z M 3.230469 0 "/>
<path style=" stroke:none;fill-rule:nonzero;fill:rgb(0%,0%,0%);fill-opacity:1;" d="M 19.382812 1.613281 L 19.382812 3.230469 L 17.769531 3.230469 L 17.769531 1.613281 Z M 19.382812 1.613281 "/>
<path style=" stroke:none;fill-rule:nonzero;fill:rgb(0%,0%,0%);fill-opacity:1;" d="M 4.847656 3.230469 L 4.847656 4.847656 L 3.230469 4.847656 L 3.230469 3.230469 Z M 4.847656 3.230469 "/>
<path style=" stroke:none;fill-rule:nonzero;fill:rgb(0%,0%,0%);fill-opacity:1;" d="M 4.847656 1.613281 L 4.847656 3.230469 L 3.230469 3.230469 L 3.230469 1.613281 Z M 4.847656 1.613281 "/>
<path style=" stroke:none;fill-rule:nonzero;fill:rgb(0%,0%,0%);fill-opacity:1;" d="M 4.847656 4.847656 L 4.847656 6.460938 L 3.230469 6.460938 L 3.230469 4.847656 Z M 4.847656 4.847656 "/>
<path style=" stroke:none;fill-rule:nonzero;fill:rgb(0%,0%,0%);fill-opacity:1;" d="M 16.152344 3.230469 L 16.152344 4.847656 L 14.539062 4.847656 L 14.539062 3.230469 Z M 16.152344 3.230469 "/>
<path style=" stroke:none;fill-rule:nonzero;fill:rgb(0%,0%,0%);fill-opacity:1;" d="M 16.152344 1.613281 L 16.152344 3.230469 L 14.539062 3.230469 L 14.539062 1.613281 Z M 16.152344 1.613281 "/>
<path style=" stroke:none;fill-rule:nonzero;fill:rgb(0%,0%,0%);fill-opacity:1;" d="M 16.152344 4.847656 L 16.152344 6.460938 L 14.539062 6.460938 L 14.539062 4.847656 Z M 16.152344 4.847656 "/>
<path style=" stroke:none;fill-rule:nonzero;fill:rgb(0%,0%,0%);fill-opacity:1;" d="M 12.921875 3.230469 L 12.921875 4.847656 L 11.308594 4.847656 L 11.308594 3.230469 Z M 12.921875 3.230469 "/>
<path style=" stroke:none;fill-rule:nonzero;fill:rgb(0%,0%,0%);fill-opacity:1;" d="M 12.921875 1.613281 L 12.921875 3.230469 L 11.308594 3.230469 L 11.308594 1.613281 Z M 12.921875 1.613281 "/>
<path style=" stroke:none;fill-rule:nonzero;fill:rgb(0%,0%,0%);fill-opacity:1;" d="M 12.921875 4.847656 L 12.921875 6.460938 L 11.308594 6.460938 L 11.308594 4.847656 Z M 12.921875 4.847656 "/>
<path style=" stroke:none;fill-rule:nonzero;fill:rgb(0%,0%,0%);fill-opacity:1;" d="M 16.152344 6.460938 L 16.152344 8.078125 L 14.539062 8.078125 L 14.539062 6.460938 Z M 16.152344 6.460938 "/>
<path style=" stroke:none;fill-rule:nonzero;fill:rgb(0%,0%,0%);fill-opacity:1;" d="M 14.539062 6.460938 L 14.539062 8.078125 L 12.921875 8.078125 L 12.921875 6.460938 Z M 14.539062 6.460938 "/>
<path style=" stroke:none;fill-rule:nonzero;fill:rgb(0%,0%,0%);fill-opacity:1;" d="M 12.921875 6.460938 L 12.921875 8.078125 L 11.308594 8.078125 L 11.308594 6.460938 Z M 12.921875 6.460938 "/>
<path style=" stroke:none;fill-rule:nonzero;fill:rgb(0%,0%,0%);fill-opacity:1;" d="M 11.308594 6.460938 L 11.308594 8.078125 L 9.691406 8.078125 L 9.691406 6.460938 Z M 11.308594 6.460938 "/>
<path style=" stroke:none;fill-rule:nonzero;fill:rgb(0%,0%,0%);fill-opacity:1;" d="M 9.691406 6.460938 L 9.691406 8.078125 L 8.078125 8.078125 L 8.078125 6.460938 Z M 9.691406 6.460938 "/>
<path style=" stroke:none;fill-rule:nonzero;fill:rgb(0%,0%,0%);fill-opacity:1;" d="M 8.078125 6.460938 L 8.078125 8.078125 L 6.460938 8.078125 L 6.460938 6.460938 Z M 8.078125 6.460938 "/>
<path style=" stroke:none;fill-rule:nonzero;fill:rgb(0%,0%,0%);fill-opacity:1;" d="M 6.460938 6.460938 L 6.460938 8.078125 L 4.847656 8.078125 L 4.847656 6.460938 Z M 6.460938 6.460938 "/>
<path style=" stroke:none;fill-rule:nonzero;fill:rgb(0%,0%,0%);fill-opacity:1;" d="M 4.847656 6.460938 L 4.847656 8.078125 L 3.230469 8.078125 L 3.230469 6.460938 Z M 4.847656 6.460938 "/>
<path style=" stroke:none;fill-rule:nonzero;fill:rgb(0%,0%,0%);fill-opacity:1;" d="M 17.769531 11.308594 L 17.769531 12.921875 L 16.152344 12.921875 L 16.152344 11.308594 Z M 17.769531 11.308594 "/>
<path style=" stroke:none;fill-rule:nonzero;fill:rgb(0%,0%,0%);fill-opacity:1;" d="M 16.152344 11.308594 L 16.152344 12.921875 L 14.539062 12.921875 L 14.539062 11.308594 Z M 16.152344 11.308594 "/>
<path style=" stroke:none;fill-rule:nonzero;fill:rgb(0%,0%,0%);fill-opacity:1;" d="M 14.539062 11.308594 L 14.539062 12.921875 L 12.921875 12.921875 L 12.921875 11.308594 Z M 14.539062 11.308594 "/>
<path style=" stroke:none;fill-rule:nonzero;fill:rgb(0%,0%,0%);fill-opacity:1;" d="M 12.921875 11.308594 L 12.921875 12.921875 L 11.308594 12.921875 L 11.308594 11.308594 Z M 12.921875 11.308594 "/>
<path style=" stroke:none;fill-rule:nonzero;fill:rgb(0%,0%,0%);fill-opacity:1;" d="M 11.308594 11.308594 L 11.308594 12.921875 L 9.691406 12.921875 L 9.691406 11.308594 Z M 11.308594 11.308594 "/>
<path style=" stroke:none;fill-rule:nonzero;fill:rgb(0%,0%,0%);fill-opacity:1;" d="M 9.691406 11.308594 L 9.691406 12.921875 L 8.078125 12.921875 L 8.078125 11.308594 Z M 9.691406 11.308594 "/>
<path style=" stroke:none;fill-rule:nonzero;fill:rgb(0%,0%,0%);fill-opacity:1;" d="M 8.078125 11.308594 L 8.078125 12.921875 L 6.460938 12.921875 L 6.460938 11.308594 Z M 8.078125 11.308594 "/>
<path style=" stroke:none;fill-rule:nonzero;fill:rgb(0%,0%,0%);fill-opacity:1;" d="M 6.460938 11.308594 L 6.460938 12.921875 L 4.847656 12.921875 L 4.847656 11.308594 Z M 6.460938 11.308594 "/>
<path style=" stroke:none;fill-rule:nonzero;fill:rgb(0%,0%,0%);fill-opacity:1;" d="M 4.847656 11.308594 L 4.847656 12.921875 L 3.230469 12.921875 L 3.230469 11.308594 Z M 4.847656 11.308594 "/>
<path style=" stroke:none;fill-rule:nonzero;fill:rgb(0%,0%,0%);fill-opacity:1;" d="M 17.769531 12.921875 L 17.769531 14.539062 L 16.152344 14.539062 L 16.152344 12.921875 Z M 17.769531 12.921875 "/>
<path style=" stroke:none;fill-rule:nonzero;fill:rgb(0%,0%,0%);fill-opacity:1;" d="M 4.847656 12.921875 L 4.847656 14.539062 L 3.230469 14.539062 L 3.230469 12.921875 Z M 4.847656 12.921875 "/>
<path style=" stroke:none;fill-rule:nonzero;fill:rgb(0%,0%,0%);fill-opacity:1;" d="M 17.769531 14.539062 L 17.769531 16.152344 L 16.152344 16.152344 L 16.152344 14.539062 Z M 17.769531 14.539062 "/>
<path style=" stroke:none;fill-rule:nonzero;fill:rgb(0%,0%,0%);fill-opacity:1;" d="M 4.847656 14.539062 L 4.847656 16.152344 L 3.230469 16.152344 L 3.230469 14.539062 Z M 4.847656 14.539062 "/>
<path style=" stroke:none;fill-rule:nonzero;fill:rgb(0%,0%,0%);fill-opacity:1;" d="M 17.769531 16.152344 L 17.769531 17.769531 L 16.152344 17.769531 L 16.152344 16.152344 Z M 17.769531 16.152344 "/>
<path style=" stroke:none;fill-rule:nonzero;fill:rgb(0%,0%,0%);fill-opacity:1;" d="M 4.847656 16.152344 L 4.847656 17.769531 L 3.230469 17.769531 L 3.230469 16.152344 Z M 4.847656 16.152344 "/>
<path style=" stroke:none;fill-rule:nonzero;fill:rgb(0%,0%,0%);fill-opacity:1;" d="M 4.847656 17.769531 L 4.847656 19.382812 L 3.230469 19.382812 L 3.230469 17.769531 Z M 4.847656 17.769531 "/>
<path style=" stroke:none;fill-rule:nonzero;fill:rgb(0%,0%,0%);fill-opacity:1;" d="M 17.769531 17.769531 L 17.769531 19.382812 L 16.152344 19.382812 L 16.152344 17.769531 Z M 17.769531 17.769531 "/>
<path style=" stroke:none;fill-rule:nonzero;fill:rgb(0%,0%,0%);fill-opacity:1;" d="M 19.382812 19.386719 L 19.382812 21 L 17.769531 21 L 17.769531 19.386719 Z M 19.382812 19.386719 "/>
<path style=" stroke:none;fill-rule:nonzero;fill:rgb(0%,0%,0%);fill-opacity:1;" d="M 17.769531 19.386719 L 17.769531 21 L 16.152344 21 L 16.152344 19.386719 Z M 17.769531 19.386719 "/>
<path style=" stroke:none;fill-rule:nonzero;fill:rgb(0%,0%,0%);fill-opacity:1;" d="M 16.152344 19.386719 L 16.152344 21 L 14.539062 21 L 14.539062 19.386719 Z M 16.152344 19.386719 "/>
<path style=" stroke:none;fill-rule:nonzero;fill:rgb(0%,0%,0%);fill-opacity:1;" d="M 14.539062 19.386719 L 14.539062 21 L 12.921875 21 L 12.921875 19.386719 Z M 14.539062 19.386719 "/>
<path style=" stroke:none;fill-rule:nonzero;fill:rgb(0%,0%,0%);fill-opacity:1;" d="M 12.921875 19.386719 L 12.921875 21 L 11.308594 21 L 11.308594 19.386719 Z M 12.921875 19.386719 "/>
<path style=" stroke:none;fill-rule:nonzero;fill:rgb(0%,0%,0%);fill-opacity:1;" d="M 11.308594 19.386719 L 11.308594 21 L 9.691406 21 L 9.691406 19.386719 Z M 11.308594 19.386719 "/>
<path style=" stroke:none;fill-rule:nonzero;fill:rgb(0%,0%,0%);fill-opacity:1;" d="M 9.691406 19.386719 L 9.691406 21 L 8.078125 21 L 8.078125 19.386719 Z M 9.691406 19.386719 "/>
<path style=" stroke:none;fill-rule:nonzero;fill:rgb(0%,0%,0%);fill-opacity:1;" d="M 8.078125 19.386719 L 8.078125 21 L 6.460938 21 L 6.460938 19.386719 Z M 8.078125 19.386719 "/>
<path style=" stroke:none;fill-rule:nonzero;fill:rgb(0%,0%,0%);fill-opacity:1;" d="M 6.460938 19.386719 L 6.460938 21 L 4.847656 21 L 4.847656 19.386719 Z M 6.460938 19.386719 "/>
<path style=" stroke:none;fill-rule:nonzero;fill:rgb(0%,0%,0%);fill-opacity:1;" d="M 4.847656 19.386719 L 4.847656 21 L 3.230469 21 L 3.230469 19.386719 Z M 4.847656 19.386719 "/>
<path style=" stroke:none;fill-rule:nonzero;fill:rgb(0%,0%,0%);fill-opacity:1;" d="M 3.230469 19.386719 L 3.230469 21 L 1.617188 21 L 1.617188 19.386719 Z M 3.230469 19.386719 "/>
<path style=" stroke:none;fill-rule:nonzero;fill:rgb(0%,0%,0%);fill-opacity:1;" d="M 21 21 L 19.382812 21 L 19.382812 19.382812 L 21 19.382812 Z M 21 21 "/>
<path style=" stroke:none;fill-rule:nonzero;fill:rgb(0%,0%,0%);fill-opacity:1;" d="M 21 19.386719 L 19.382812 19.386719 L 19.382812 17.769531 L 21 17.769531 Z M 21 19.386719 "/>
<path style=" stroke:none;fill-rule:nonzero;fill:rgb(0%,0%,0%);fill-opacity:1;" d="M 21 17.769531 L 19.382812 17.769531 L 19.382812 16.152344 L 21 16.152344 Z M 21 17.769531 "/>
<path style=" stroke:none;fill-rule:nonzero;fill:rgb(0%,0%,0%);fill-opacity:1;" d="M 21 16.152344 L 19.382812 16.152344 L 19.382812 14.539062 L 21 14.539062 Z M 21 16.152344 "/>
<path style=" stroke:none;fill-rule:nonzero;fill:rgb(0%,0%,0%);fill-opacity:1;" d="M 21 14.539062 L 19.382812 14.539062 L 19.382812 12.921875 L 21 12.921875 Z M 21 14.539062 "/>
<path style=" stroke:none;fill-rule:nonzero;fill:rgb(0%,0%,0%);fill-opacity:1;" d="M 21 12.921875 L 19.382812 12.921875 L 19.382812 11.308594 L 21 11.308594 Z M 21 12.921875 "/>
<path style=" stroke:none;fill-rule:nonzero;fill:rgb(0%,0%,0%);fill-opacity:1;" d="M 21 11.308594 L 19.382812 11.308594 L 19.382812 9.691406 L 21 9.691406 Z M 21 11.308594 "/>
<path style=" stroke:none;fill-rule:nonzero;fill:rgb(0%,0%,0%);fill-opacity:1;" d="M 21 9.691406 L 19.382812 9.691406 L 19.382812 8.078125 L 21 8.078125 Z M 21 9.691406 "/>
<path style=" stroke:none;fill-rule:nonzero;fill:rgb(0%,0%,0%);fill-opacity:1;" d="M 21 8.078125 L 19.382812 8.078125 L 19.382812 6.460938 L 21 6.460938 Z M 21 8.078125 "/>
<path style=" stroke:none;fill-rule:nonzero;fill:rgb(0%,0%,0%);fill-opacity:1;" d="M 21 6.460938 L 19.382812 6.460938 L 19.382812 4.847656 L 21 4.847656 Z M 21 6.460938 "/>
<path style=" stroke:none;fill-rule:nonzero;fill:rgb(0%,0%,0%);fill-opacity:1;" d="M 21 4.847656 L 19.382812 4.847656 L 19.382812 3.230469 L 21 3.230469 Z M 21 4.847656 "/>
</symbol>
</svg>
